<?xml version="1.0" encoding="UTF-8" standalone="no"?>
<!DOCTYPE svg PUBLIC "-//W3C//DTD SVG 1.1//EN"
 "http://www.w3.org/Graphics/SVG/1.1/DTD/svg11.dtd">
<!-- Generated by graphviz version 5.0.0 (20220707.1540)
 -->
<!-- Title: G Pages: 1 -->
<svg width="1203pt" height="311pt"
 viewBox="0.00 0.00 1202.91 310.53" xmlns="http://www.w3.org/2000/svg" xmlns:xlink="http://www.w3.org/1999/xlink">
<g id="graph0" class="graph" transform="scale(1 1) rotate(0) translate(4 306.53)">
<title>G</title>
<polygon fill="white" stroke="transparent" points="-4,4 -4,-306.53 1198.91,-306.53 1198.91,4 -4,4"/>
<!-- http://beatbytebot.web.app/ontology/Prediction -->
<g id="node1" class="node">
<title>http://beatbytebot.web.app/ontology/Prediction</title>
<ellipse fill="#1f77b4" stroke="#1f77b4" cx="50.91" cy="-283.03" rx="50.82" ry="16.03"/>
<text text-anchor="middle" x="50.91" y="-279.33" font-family="Times,serif" font-size="14.00">Prediction</text>
</g>
<!-- http://beatbytebot.web.app/ontology/AudioTrack -->
<g id="node2" class="node">
<title>http://beatbytebot.web.app/ontology/AudioTrack</title>
<ellipse fill="#1f77b4" stroke="#1f77b4" cx="204.91" cy="-193.03" rx="57.97" ry="16.03"/>
<text text-anchor="middle" x="204.91" y="-189.33" font-family="Times,serif" font-size="14.00">AudioTrack</text>
</g>
<!-- http://beatbytebot.web.app/ontology/AudioProject -->
<g id="node3" class="node">
<title>http://beatbytebot.web.app/ontology/AudioProject</title>
<ellipse fill="#1f77b4" stroke="#1f77b4" cx="601.91" cy="-103.03" rx="62.87" ry="16.03"/>
<text text-anchor="middle" x="601.91" y="-99.33" font-family="Times,serif" font-size="14.00">AudioProject</text>
</g>
<!-- http://beatbytebot.web.app/ontology/TelegramChat -->
<g id="node4" class="node">
<title>http://beatbytebot.web.app/ontology/TelegramChat</title>
<ellipse fill="#e377c2" stroke="#e377c2" cx="803.91" cy="-16.26" rx="67.35" ry="16.03"/>
<text text-anchor="middle" x="803.91" y="-12.56" font-family="Times,serif" font-size="14.00">TelegramChat</text>
</g>
<!-- http://beatbytebot.web.app/ontology/TelegramChat&#45;&gt;http://beatbytebot.web.app/ontology/AudioProject -->
<g id="edge1" class="edge">
<title>http://beatbytebot.web.app/ontology/TelegramChat&#45;&gt;http://beatbytebot.web.app/ontology/AudioProject</title>
<path fill="none" stroke="black" d="M770.31,-30.49C755.17,-36.51 737.1,-43.78 720.91,-50.53 694.37,-61.59 664.68,-74.43 641.6,-84.53"/>
<polygon fill="black" stroke="black" points="639.89,-81.46 632.14,-88.67 642.7,-87.87 639.89,-81.46"/>
<text text-anchor="middle" x="724.41" y="-54.33" font-family="Times,serif" font-size="14.00">a</text>
</g>
<!-- http://beatbytebot.web.app/ontology/Cello3 -->
<g id="node5" class="node">
<title>http://beatbytebot.web.app/ontology/Cello3</title>
<ellipse fill="#e377c2" stroke="#e377c2" cx="719.91" cy="-103.03" rx="37.45" ry="16.03"/>
<text text-anchor="middle" x="719.91" y="-99.33" font-family="Times,serif" font-size="14.00">Cello3</text>
</g>
<!-- http://beatbytebot.web.app/ontology/TelegramChat&#45;&gt;http://beatbytebot.web.app/ontology/Cello3 -->
<g id="edge4" class="edge">
<title>http://beatbytebot.web.app/ontology/TelegramChat&#45;&gt;http://beatbytebot.web.app/ontology/Cello3</title>
<path fill="none" stroke="black" d="M768.88,-30.34C758.84,-35.43 748.55,-42.09 740.91,-50.53 734.22,-57.91 729.52,-67.71 726.28,-76.77"/>
<polygon fill="black" stroke="black" points="722.87,-75.94 723.22,-86.53 729.55,-78.03 722.87,-75.94"/>
<text text-anchor="middle" x="770.41" y="-54.33" font-family="Times,serif" font-size="14.00">instrument</text>
</g>
<!-- cfc98fc15c9844a7a17153d11459d3fc -->
<g id="node18" class="node">
<title>cfc98fc15c9844a7a17153d11459d3fc</title>
<polygon fill="#ff7f0e" stroke="#ff7f0e" points="832.41,-122.53 775.41,-122.53 775.41,-83.53 832.41,-83.53 832.41,-122.53"/>
<text text-anchor="middle" x="803.91" y="-91.33" font-family="Times,serif" font-size="14.00">Mutiny</text>
</g>
<!-- http://beatbytebot.web.app/ontology/TelegramChat&#45;&gt;cfc98fc15c9844a7a17153d11459d3fc -->
<g id="edge20" class="edge">
<title>http://beatbytebot.web.app/ontology/TelegramChat&#45;&gt;cfc98fc15c9844a7a17153d11459d3fc</title>
<path fill="none" stroke="black" d="M803.91,-32.81C803.91,-44.05 803.91,-59.56 803.91,-73.06"/>
<polygon fill="black" stroke="black" points="800.41,-73.32 803.91,-83.32 807.41,-73.32 800.41,-73.32"/>
<text text-anchor="middle" x="814.91" y="-54.33" font-family="Times,serif" font-size="14.00">title</text>
</g>
<!-- 5df8fc5676764dd9af47a6c2f2051a1f -->
<g id="node19" class="node">
<title>5df8fc5676764dd9af47a6c2f2051a1f</title>
<polygon fill="#ff7f0e" stroke="#ff7f0e" points="927.41,-122.53 850.41,-122.53 850.41,-83.53 927.41,-83.53 927.41,-122.53"/>
<text text-anchor="middle" x="888.91" y="-91.33" font-family="Times,serif" font-size="14.00">123456789</text>
</g>
<!-- http://beatbytebot.web.app/ontology/TelegramChat&#45;&gt;5df8fc5676764dd9af47a6c2f2051a1f -->
<g id="edge16" class="edge">
<title>http://beatbytebot.web.app/ontology/TelegramChat&#45;&gt;5df8fc5676764dd9af47a6c2f2051a1f</title>
<path fill="none" stroke="black" d="M819.11,-32.42C831.31,-44.58 848.71,-61.94 863.09,-76.28"/>
<polygon fill="black" stroke="black" points="860.74,-78.87 870.29,-83.45 865.68,-73.92 860.74,-78.87"/>
<text text-anchor="middle" x="857.41" y="-54.33" font-family="Times,serif" font-size="14.00">id</text>
</g>
<!-- 9898c07e30ac4904be5dcf9ceefc4ef5 -->
<g id="node21" class="node">
<title>9898c07e30ac4904be5dcf9ceefc4ef5</title>
<polygon fill="#ff7f0e" stroke="#ff7f0e" points="999.91,-122.53 945.91,-122.53 945.91,-83.53 999.91,-83.53 999.91,-122.53"/>
<text text-anchor="middle" x="972.91" y="-91.33" font-family="Times,serif" font-size="14.00">group</text>
</g>
<!-- http://beatbytebot.web.app/ontology/TelegramChat&#45;&gt;9898c07e30ac4904be5dcf9ceefc4ef5 -->
<g id="edge6" class="edge">
<title>http://beatbytebot.web.app/ontology/TelegramChat&#45;&gt;9898c07e30ac4904be5dcf9ceefc4ef5</title>
<path fill="none" stroke="black" d="M831.82,-31.26C860.45,-45.62 905.13,-68.03 936.52,-83.77"/>
<polygon fill="black" stroke="black" points="935.29,-87.08 945.8,-88.43 938.43,-80.82 935.29,-87.08"/>
<text text-anchor="middle" x="910.91" y="-54.33" font-family="Times,serif" font-size="14.00">type</text>
</g>
<!-- http://beatbytebot.web.app/ontology/Cello3&#45;&gt;http://beatbytebot.web.app/ontology/AudioTrack -->
<g id="edge3" class="edge">
<title>http://beatbytebot.web.app/ontology/Cello3&#45;&gt;http://beatbytebot.web.app/ontology/AudioTrack</title>
<path fill="none" stroke="black" d="M695.55,-115.51C688.69,-118.27 681.13,-120.9 673.91,-122.53 547.95,-150.98 511.16,-118.54 383.91,-140.53 336.87,-148.65 284.56,-164.53 248.7,-176.52"/>
<polygon fill="black" stroke="black" points="247.39,-173.27 239.04,-179.79 249.64,-179.9 247.39,-173.27"/>
<text text-anchor="middle" x="387.41" y="-144.33" font-family="Times,serif" font-size="14.00">a</text>
</g>
<!-- http://beatbytebot.web.app/ontology/Pred -->
<g id="node6" class="node">
<title>http://beatbytebot.web.app/ontology/Pred</title>
<ellipse fill="#e377c2" stroke="#e377c2" cx="309.91" cy="-193.03" rx="28.98" ry="16.03"/>
<text text-anchor="middle" x="309.91" y="-189.33" font-family="Times,serif" font-size="14.00">Pred</text>
</g>
<!-- http://beatbytebot.web.app/ontology/Cello3&#45;&gt;http://beatbytebot.web.app/ontology/Pred -->
<g id="edge7" class="edge">
<title>http://beatbytebot.web.app/ontology/Cello3&#45;&gt;http://beatbytebot.web.app/ontology/Pred</title>
<path fill="none" stroke="black" d="M695.53,-115.42C688.67,-118.19 681.12,-120.83 673.91,-122.53 576.69,-145.42 547.87,-121.02 449.91,-140.53 403.18,-149.83 392.11,-155.72 347.91,-173.53 345.23,-174.61 342.48,-175.79 339.73,-177.02"/>
<polygon fill="black" stroke="black" points="338.15,-173.9 330.58,-181.31 341.12,-180.24 338.15,-173.9"/>
<text text-anchor="middle" x="477.41" y="-144.33" font-family="Times,serif" font-size="14.00">prediction</text>
</g>
<!-- http://beatbytebot.web.app/ontology/WilliamHumbert -->
<g id="node8" class="node">
<title>http://beatbytebot.web.app/ontology/WilliamHumbert</title>
<ellipse fill="#e377c2" stroke="#e377c2" cx="434.91" cy="-193.03" rx="77.56" ry="16.03"/>
<text text-anchor="middle" x="434.91" y="-189.33" font-family="Times,serif" font-size="14.00">WilliamHumbert</text>
</g>
<!-- http://beatbytebot.web.app/ontology/Cello3&#45;&gt;http://beatbytebot.web.app/ontology/WilliamHumbert -->
<g id="edge13" class="edge">
<title>http://beatbytebot.web.app/ontology/Cello3&#45;&gt;http://beatbytebot.web.app/ontology/WilliamHumbert</title>
<path fill="none" stroke="black" d="M694.98,-115.33C688.25,-118.02 680.9,-120.66 673.91,-122.53 618.84,-137.27 601.61,-124.45 546.91,-140.53 520.08,-148.41 491.46,-161.67 469.87,-172.75"/>
<polygon fill="black" stroke="black" points="468.02,-169.77 460.77,-177.51 471.26,-175.98 468.02,-169.77"/>
<text text-anchor="middle" x="575.91" y="-144.33" font-family="Times,serif" font-size="14.00">performed</text>
</g>
<!-- 11cd7c3d9db946bca755957cb56c898c -->
<g id="node9" class="node">
<title>11cd7c3d9db946bca755957cb56c898c</title>
<polygon fill="#ff7f0e" stroke="#ff7f0e" points="615.41,-212.53 530.41,-212.53 530.41,-173.53 615.41,-173.53 615.41,-212.53"/>
<text text-anchor="middle" x="572.91" y="-181.33" font-family="Times,serif" font-size="14.00">cello03.mp3</text>
</g>
<!-- http://beatbytebot.web.app/ontology/Cello3&#45;&gt;11cd7c3d9db946bca755957cb56c898c -->
<g id="edge9" class="edge">
<title>http://beatbytebot.web.app/ontology/Cello3&#45;&gt;11cd7c3d9db946bca755957cb56c898c</title>
<path fill="none" stroke="black" d="M693.16,-114.8C686.85,-117.33 680.14,-120.03 673.91,-122.53 653.92,-130.55 647.14,-129.05 628.91,-140.53 617.74,-147.57 606.75,-156.96 597.5,-165.8"/>
<polygon fill="black" stroke="black" points="594.84,-163.52 590.18,-173.03 599.76,-168.5 594.84,-163.52"/>
<text text-anchor="middle" x="656.41" y="-144.33" font-family="Times,serif" font-size="14.00">file_name</text>
</g>
<!-- 493c86c8bb2d4d9a8df0595310a8357d -->
<g id="node10" class="node">
<title>493c86c8bb2d4d9a8df0595310a8357d</title>
<polygon fill="#ff7f0e" stroke="#ff7f0e" points="690.41,-212.53 633.41,-212.53 633.41,-173.53 690.41,-173.53 690.41,-212.53"/>
<text text-anchor="middle" x="661.91" y="-181.33" font-family="Times,serif" font-size="14.00">117262</text>
</g>
<!-- http://beatbytebot.web.app/ontology/Cello3&#45;&gt;493c86c8bb2d4d9a8df0595310a8357d -->
<g id="edge22" class="edge">
<title>http://beatbytebot.web.app/ontology/Cello3&#45;&gt;493c86c8bb2d4d9a8df0595310a8357d</title>
<path fill="none" stroke="black" d="M710.07,-118.95C701.81,-131.5 689.78,-149.75 679.81,-164.87"/>
<polygon fill="black" stroke="black" points="676.81,-163.07 674.22,-173.35 682.65,-166.92 676.81,-163.07"/>
<text text-anchor="middle" x="717.91" y="-144.33" font-family="Times,serif" font-size="14.00">file_size</text>
</g>
<!-- 8e37594979464905b93686d07340d537 -->
<g id="node11" class="node">
<title>8e37594979464905b93686d07340d537</title>
<polygon fill="#ff7f0e" stroke="#ff7f0e" points="849.41,-212.53 708.41,-212.53 708.41,-173.53 849.41,-173.53 849.41,-212.53"/>
<text text-anchor="middle" x="778.91" y="-181.33" font-family="Times,serif" font-size="14.00">AgADfQwAAtp2YVA</text>
</g>
<!-- http://beatbytebot.web.app/ontology/Cello3&#45;&gt;8e37594979464905b93686d07340d537 -->
<g id="edge14" class="edge">
<title>http://beatbytebot.web.app/ontology/Cello3&#45;&gt;8e37594979464905b93686d07340d537</title>
<path fill="none" stroke="black" d="M730.19,-118.91C734.73,-125.51 740.11,-133.39 744.91,-140.53 750.21,-148.41 755.92,-157 761.11,-164.88"/>
<polygon fill="black" stroke="black" points="758.29,-166.96 766.71,-173.38 764.14,-163.11 758.29,-166.96"/>
<text text-anchor="middle" x="794.41" y="-144.33" font-family="Times,serif" font-size="14.00">file_unique_id</text>
</g>
<!-- 93b02c14e7b643b2a322c0ab0324c5af -->
<g id="node12" class="node">
<title>93b02c14e7b643b2a322c0ab0324c5af</title>
<polygon fill="#ff7f0e" stroke="#ff7f0e" points="948.41,-212.53 867.41,-212.53 867.41,-173.53 948.41,-173.53 948.41,-212.53"/>
<text text-anchor="middle" x="907.91" y="-181.33" font-family="Times,serif" font-size="14.00">audio/mpeg</text>
</g>
<!-- http://beatbytebot.web.app/ontology/Cello3&#45;&gt;93b02c14e7b643b2a322c0ab0324c5af -->
<g id="edge8" class="edge">
<title>http://beatbytebot.web.app/ontology/Cello3&#45;&gt;93b02c14e7b643b2a322c0ab0324c5af</title>
<path fill="none" stroke="black" d="M745.47,-115.03C752.07,-117.67 759.2,-120.35 765.91,-122.53 797.29,-132.7 808.06,-126.49 837.91,-140.53 852.55,-147.41 867.21,-157.57 879.31,-167.05"/>
<polygon fill="black" stroke="black" points="877.26,-169.89 887.24,-173.45 881.66,-164.44 877.26,-169.89"/>
<text text-anchor="middle" x="894.41" y="-144.33" font-family="Times,serif" font-size="14.00">mime_type</text>
</g>
<!-- 98aab8a7c7464d4e97e84ffbf6c4beb4 -->
<g id="node14" class="node">
<title>98aab8a7c7464d4e97e84ffbf6c4beb4</title>
<polygon fill="#ff7f0e" stroke="#ff7f0e" points="1020.91,-212.53 966.91,-212.53 966.91,-173.53 1020.91,-173.53 1020.91,-212.53"/>
<text text-anchor="middle" x="993.91" y="-181.33" font-family="Times,serif" font-size="14.00">29</text>
</g>
<!-- http://beatbytebot.web.app/ontology/Cello3&#45;&gt;98aab8a7c7464d4e97e84ffbf6c4beb4 -->
<g id="edge19" class="edge">
<title>http://beatbytebot.web.app/ontology/Cello3&#45;&gt;98aab8a7c7464d4e97e84ffbf6c4beb4</title>
<path fill="none" stroke="black" d="M744.81,-115.48C751.54,-118.17 758.9,-120.77 765.91,-122.53 837.03,-140.37 862.19,-112.41 929.91,-140.53 944.22,-146.47 957.91,-156.64 968.93,-166.38"/>
<polygon fill="black" stroke="black" points="966.73,-169.12 976.45,-173.33 971.48,-163.98 966.73,-169.12"/>
<text text-anchor="middle" x="977.91" y="-144.33" font-family="Times,serif" font-size="14.00">duration</text>
</g>
<!-- 8d653306205d42f686a28f325091cf38 -->
<g id="node17" class="node">
<title>8d653306205d42f686a28f325091cf38</title>
<polygon fill="#ff7f0e" stroke="#ff7f0e" points="1092.91,-212.53 1038.91,-212.53 1038.91,-173.53 1092.91,-173.53 1092.91,-212.53"/>
<text text-anchor="middle" x="1065.91" y="-181.33" font-family="Times,serif" font-size="14.00">3426</text>
</g>
<!-- http://beatbytebot.web.app/ontology/Cello3&#45;&gt;8d653306205d42f686a28f325091cf38 -->
<g id="edge5" class="edge">
<title>http://beatbytebot.web.app/ontology/Cello3&#45;&gt;8d653306205d42f686a28f325091cf38</title>
<path fill="none" stroke="black" d="M744.29,-115.45C751.14,-118.21 758.7,-120.85 765.91,-122.53 869.66,-146.68 906.31,-100.21 1004.91,-140.53 1018.95,-146.27 1032.13,-156.51 1042.63,-166.36"/>
<polygon fill="black" stroke="black" points="1040.19,-168.87 1049.77,-173.39 1045.1,-163.88 1040.19,-168.87"/>
<text text-anchor="middle" x="1060.91" y="-144.33" font-family="Times,serif" font-size="14.00">message_id</text>
</g>
<!-- 8dcedcd311de401c97ae6b0ee336d940 -->
<g id="node22" class="node">
<title>8dcedcd311de401c97ae6b0ee336d940</title>
<polygon fill="#ff7f0e" stroke="#ff7f0e" points="1194.91,-212.53 1110.91,-212.53 1110.91,-173.53 1194.91,-173.53 1194.91,-212.53"/>
<text text-anchor="middle" x="1152.91" y="-181.33" font-family="Times,serif" font-size="14.00">1661684734</text>
</g>
<!-- http://beatbytebot.web.app/ontology/Cello3&#45;&gt;8dcedcd311de401c97ae6b0ee336d940 -->
<g id="edge21" class="edge">
<title>http://beatbytebot.web.app/ontology/Cello3&#45;&gt;8dcedcd311de401c97ae6b0ee336d940</title>
<path fill="none" stroke="black" d="M744.26,-115.54C751.12,-118.31 758.68,-120.92 765.91,-122.53 837.83,-138.48 1029.03,-111.91 1096.91,-140.53 1109.97,-146.03 1121.92,-155.97 1131.4,-165.66"/>
<polygon fill="black" stroke="black" points="1129.09,-168.32 1138.44,-173.29 1134.23,-163.57 1129.09,-168.32"/>
<text text-anchor="middle" x="1130.41" y="-144.33" font-family="Times,serif" font-size="14.00">date</text>
</g>
<!-- http://beatbytebot.web.app/ontology/Pred&#45;&gt;http://beatbytebot.web.app/ontology/Prediction -->
<g id="edge18" class="edge">
<title>http://beatbytebot.web.app/ontology/Pred&#45;&gt;http://beatbytebot.web.app/ontology/Prediction</title>
<path fill="none" stroke="black" d="M289.84,-205.11C284.18,-207.88 277.92,-210.6 271.91,-212.53 226.41,-227.13 211.64,-216.65 165.91,-230.53 137.7,-239.09 107.33,-252.9 84.88,-264.07"/>
<polygon fill="black" stroke="black" points="83.13,-261.04 75.78,-268.67 86.28,-267.29 83.13,-261.04"/>
<text text-anchor="middle" x="169.41" y="-234.33" font-family="Times,serif" font-size="14.00">a</text>
</g>
<!-- http://beatbytebot.web.app/ontology/Lab -->
<g id="node7" class="node">
<title>http://beatbytebot.web.app/ontology/Lab</title>
<ellipse fill="#e377c2" stroke="#e377c2" cx="146.91" cy="-283.03" rx="27" ry="16.03"/>
<text text-anchor="middle" x="146.91" y="-279.33" font-family="Times,serif" font-size="14.00">Lab</text>
</g>
<!-- http://beatbytebot.web.app/ontology/Pred&#45;&gt;http://beatbytebot.web.app/ontology/Lab -->
<g id="edge10" class="edge">
<title>http://beatbytebot.web.app/ontology/Pred&#45;&gt;http://beatbytebot.web.app/ontology/Lab</title>
<path fill="none" stroke="black" d="M289.76,-204.87C284.1,-207.63 277.86,-210.41 271.91,-212.53 238.79,-224.29 225.32,-212.91 194.91,-230.53 182.39,-237.78 171.19,-249.33 162.76,-259.66"/>
<polygon fill="black" stroke="black" points="159.99,-257.53 156.63,-267.58 165.52,-261.82 159.99,-257.53"/>
<text text-anchor="middle" x="208.41" y="-234.33" font-family="Times,serif" font-size="14.00">label</text>
</g>
<!-- fcbc0043de7840fe87637d6e02c011a0 -->
<g id="node13" class="node">
<title>fcbc0043de7840fe87637d6e02c011a0</title>
<polygon fill="#ff7f0e" stroke="#ff7f0e" points="245.91,-302.53 191.91,-302.53 191.91,-263.53 245.91,-263.53 245.91,-302.53"/>
<text text-anchor="middle" x="218.91" y="-271.33" font-family="Times,serif" font-size="14.00">526</text>
</g>
<!-- http://beatbytebot.web.app/ontology/Pred&#45;&gt;fcbc0043de7840fe87637d6e02c011a0 -->
<g id="edge12" class="edge">
<title>http://beatbytebot.web.app/ontology/Pred&#45;&gt;fcbc0043de7840fe87637d6e02c011a0</title>
<path fill="none" stroke="black" d="M288.65,-204.48C283.2,-207.12 277.35,-209.95 271.91,-212.53 254.66,-220.71 245.24,-215.95 232.91,-230.53 227.53,-236.89 224.2,-245.15 222.15,-253.18"/>
<polygon fill="black" stroke="black" points="218.7,-252.58 220.17,-263.07 225.56,-253.95 218.7,-252.58"/>
<text text-anchor="middle" x="267.91" y="-234.33" font-family="Times,serif" font-size="14.00">predict_time</text>
</g>
<!-- 0b6c27a435404a7395a910bb2cce555e -->
<g id="node15" class="node">
<title>0b6c27a435404a7395a910bb2cce555e</title>
<polygon fill="#ff7f0e" stroke="#ff7f0e" points="342.41,-302.53 265.41,-302.53 265.41,-263.53 342.41,-263.53 342.41,-302.53"/>
<text text-anchor="middle" x="303.91" y="-271.33" font-family="Times,serif" font-size="14.00">7b853d009</text>
</g>
<!-- http://beatbytebot.web.app/ontology/Pred&#45;&gt;0b6c27a435404a7395a910bb2cce555e -->
<g id="edge11" class="edge">
<title>http://beatbytebot.web.app/ontology/Pred&#45;&gt;0b6c27a435404a7395a910bb2cce555e</title>
<path fill="none" stroke="black" d="M308.87,-209.36C308.04,-221.48 306.86,-238.75 305.86,-253.41"/>
<polygon fill="black" stroke="black" points="302.36,-253.3 305.17,-263.52 309.35,-253.78 302.36,-253.3"/>
<text text-anchor="middle" x="335.41" y="-234.33" font-family="Times,serif" font-size="14.00">predict_id</text>
</g>
<!-- 63910fac8c854284ba0d7f0be70aa069 -->
<g id="node16" class="node">
<title>63910fac8c854284ba0d7f0be70aa069</title>
<polygon fill="#ff7f0e" stroke="#ff7f0e" points="414.91,-302.53 360.91,-302.53 360.91,-263.53 414.91,-263.53 414.91,-302.53"/>
<text text-anchor="middle" x="387.91" y="-271.33" font-family="Times,serif" font-size="14.00">0.5</text>
</g>
<!-- http://beatbytebot.web.app/ontology/Pred&#45;&gt;63910fac8c854284ba0d7f0be70aa069 -->
<g id="edge2" class="edge">
<title>http://beatbytebot.web.app/ontology/Pred&#45;&gt;63910fac8c854284ba0d7f0be70aa069</title>
<path fill="none" stroke="black" d="M331.29,-204.04C342.8,-210.31 356.51,-219.33 365.91,-230.53 371.6,-237.3 376.03,-245.77 379.37,-253.87"/>
<polygon fill="black" stroke="black" points="376.15,-255.27 382.91,-263.43 382.71,-252.83 376.15,-255.27"/>
<text text-anchor="middle" x="401.41" y="-234.33" font-family="Times,serif" font-size="14.00">threshold</text>
</g>
<!-- 221b88e463f34e168e8dcc6d4708f168 -->
<g id="node20" class="node">
<title>221b88e463f34e168e8dcc6d4708f168</title>
<polygon fill="#ff7f0e" stroke="#ff7f0e" points="530.91,-302.53 432.91,-302.53 432.91,-263.53 530.91,-263.53 530.91,-302.53"/>
<text text-anchor="middle" x="481.91" y="-271.33" font-family="Times,serif" font-size="14.00">mtt&#45;musicnn&#45;1</text>
</g>
<!-- http://beatbytebot.web.app/ontology/Pred&#45;&gt;221b88e463f34e168e8dcc6d4708f168 -->
<g id="edge17" class="edge">
<title>http://beatbytebot.web.app/ontology/Pred&#45;&gt;221b88e463f34e168e8dcc6d4708f168</title>
<path fill="none" stroke="black" d="M330.04,-204.93C335.7,-207.7 341.95,-210.46 347.91,-212.53 383.58,-224.88 397.82,-212.37 430.91,-230.53 442.37,-236.82 452.93,-246.49 461.43,-255.75"/>
<polygon fill="black" stroke="black" points="458.86,-258.12 468.07,-263.36 464.13,-253.52 458.86,-258.12"/>
<text text-anchor="middle" x="468.41" y="-234.33" font-family="Times,serif" font-size="14.00">model</text>
</g>
<!-- 10b557201c724bdaa02636192a3387e9 -->
<g id="node23" class="node">
<title>10b557201c724bdaa02636192a3387e9</title>
<polygon fill="#ff7f0e" stroke="#ff7f0e" points="602.91,-302.53 548.91,-302.53 548.91,-263.53 602.91,-263.53 602.91,-302.53"/>
<text text-anchor="middle" x="575.91" y="-271.33" font-family="Times,serif" font-size="14.00">3244</text>
</g>
<!-- http://beatbytebot.web.app/ontology/Pred&#45;&gt;10b557201c724bdaa02636192a3387e9 -->
<g id="edge15" class="edge">
<title>http://beatbytebot.web.app/ontology/Pred&#45;&gt;10b557201c724bdaa02636192a3387e9</title>
<path fill="none" stroke="black" d="M329.53,-205.09C335.3,-207.92 341.72,-210.68 347.91,-212.53 408.88,-230.69 429.79,-209.74 489.91,-230.53 508.34,-236.9 527.1,-247.55 542.38,-257.52"/>
<polygon fill="black" stroke="black" points="540.7,-260.61 550.95,-263.28 544.6,-254.8 540.7,-260.61"/>
<text text-anchor="middle" x="557.41" y="-234.33" font-family="Times,serif" font-size="14.00">extract_time</text>
</g>
</g>
</svg>
